<?xml version="1.0" encoding="UTF-8"?>
<svg id="Calque_1" data-name="Calque 1" xmlns="http://www.w3.org/2000/svg" viewBox="0 0 170.41 170.41">
  <rect x="2.83" y="2.83" width="164.74" height="164.74" rx="12" ry="12" style="fill: #cdd321; stroke: #a1a635; stroke-miterlimit: 10; stroke-width: 5.67px;"/>
  <g>
    <g>
      <path d="m54.26,125.61c-4.46,0-8.54-.72-12.12-2.14-3.59-1.43-6.69-3.45-9.2-6.02-2.51-2.57-4.45-5.67-5.77-9.23-1.31-3.53-1.97-7.45-1.97-11.66,0-7.87,3.05-15.93,9.07-23.98l17.36-23.45c.97-1.22,2.32-2.25,4.04-3.08,1.72-.83,3.7-1.25,5.88-1.25h17.65l-23.93,28.59c1.37-.21,2.79-.32,4.28-.32,2.93,0,5.86.49,8.71,1.45,2.89.98,5.51,2.49,7.79,4.52,2.29,2.03,4.17,4.62,5.57,7.7,1.4,3.08,2.11,6.75,2.11,10.88,0,3.77-.71,7.4-2.12,10.79-1.41,3.39-3.43,6.4-6.01,8.94-2.57,2.54-5.71,4.57-9.33,6.05-3.62,1.47-7.66,2.22-12.02,2.22Zm-.53-37.85c-1.46,0-2.81.26-4,.76-1.18.5-2.22,1.23-3.08,2.17-.88.95-1.57,2.12-2.07,3.45-.5,1.35-.76,2.91-.76,4.64s.21,3.35.63,4.72c.4,1.32,1.01,2.46,1.83,3.4.81.93,1.81,1.63,3.06,2.13,1.27.51,2.82.77,4.61.77,1.49,0,2.9-.28,4.17-.84,1.28-.56,2.4-1.33,3.32-2.3.93-.98,1.68-2.15,2.23-3.48.54-1.32.82-2.79.82-4.36,0-1.8-.26-3.41-.78-4.8-.51-1.35-1.23-2.5-2.14-3.41-.91-.91-2.03-1.62-3.34-2.11-1.33-.5-2.85-.76-4.5-.76Z" style="fill: #fff;"/>
      <path d="m76.18,46.21l-22.87,27.32-2.01,2.33c2.47-.92,5.22-1.38,8.26-1.38,2.79,0,5.54.46,8.26,1.38,2.72.92,5.15,2.33,7.31,4.23,2.15,1.91,3.89,4.31,5.21,7.23,1.32,2.91,1.99,6.34,1.99,10.3,0,3.6-.67,7.01-2.01,10.24-1.34,3.23-3.24,6.05-5.69,8.47-2.45,2.42-5.41,4.33-8.87,5.74-3.46,1.41-7.29,2.12-11.49,2.12s-8.17-.68-11.59-2.04c-3.42-1.36-6.33-3.26-8.71-5.69-2.38-2.44-4.2-5.35-5.45-8.73-1.25-3.39-1.88-7.11-1.88-11.17,0-7.59,2.93-15.3,8.79-23.13l17.36-23.45c.81-1.02,1.99-1.91,3.52-2.65s3.29-1.11,5.27-1.11h14.61m-22.23,65.01c1.69,0,3.27-.32,4.74-.95,1.46-.64,2.73-1.51,3.79-2.62,1.06-1.11,1.9-2.42,2.51-3.92.62-1.5.93-3.13.93-4.9,0-1.98-.29-3.74-.87-5.29-.58-1.55-1.4-2.86-2.46-3.92-1.06-1.06-2.34-1.87-3.84-2.44-1.5-.56-3.17-.85-5-.85-1.66,0-3.18.29-4.55.87s-2.57,1.42-3.57,2.51c-1.01,1.09-1.79,2.4-2.36,3.92-.56,1.52-.85,3.23-.85,5.14s.23,3.62.69,5.14c.46,1.52,1.16,2.82,2.12,3.92.95,1.09,2.15,1.93,3.6,2.51,1.45.58,3.16.87,5.14.87m28.31-67.84h-20.68c-2.4,0-4.58.47-6.5,1.39-1.92.93-3.43,2.08-4.51,3.44l-.03.04-.03.04-17.36,23.45c-6.2,8.29-9.34,16.64-9.34,24.82,0,4.38.69,8.47,2.06,12.15,1.39,3.75,3.43,7.02,6.08,9.73,2.65,2.71,5.91,4.84,9.69,6.34,3.74,1.48,8,2.24,12.64,2.24s8.77-.78,12.56-2.33c3.79-1.54,7.08-3.68,9.79-6.35,2.71-2.67,4.84-5.84,6.32-9.4,1.48-3.56,2.23-7.37,2.23-11.33,0-4.34-.75-8.2-2.24-11.47-1.48-3.26-3.47-6.01-5.92-8.18-2.43-2.15-5.21-3.76-8.28-4.8-3-1.01-6.08-1.53-9.17-1.53-.33,0-.66,0-.99.02l19.78-23.63,3.9-4.65h0Zm-28.31,65.01c-1.6,0-2.97-.22-4.08-.67-1.04-.42-1.86-.99-2.52-1.75-.69-.8-1.2-1.74-1.54-2.88-.38-1.25-.57-2.7-.57-4.32s.23-2.95.67-4.15c.43-1.16,1.03-2.17,1.79-2.99.74-.8,1.58-1.4,2.59-1.82,1.02-.43,2.18-.65,3.45-.65,1.48,0,2.83.22,4,.67,1.13.42,2.05,1.01,2.83,1.79.78.78,1.37,1.73,1.81,2.91.46,1.23.69,2.67.69,4.3,0,1.38-.24,2.67-.71,3.82-.49,1.18-1.12,2.18-1.95,3.04-.8.84-1.74,1.49-2.86,1.97-1.12.48-2.3.72-3.61.72h0Z" style="fill: #a1a635;"/>
    </g>
    <g>
      <path d="m120.13,124.76v-17.73h-29.6c-1.34,0-2.56-.42-3.64-1.25-1.1-.84-1.8-1.92-2.08-3.2l-1.83-8.74,36.49-49.05h17.8v47.17h7.94v10.63c0,1.17-.4,2.21-1.19,3.07-.83.9-1.97,1.36-3.4,1.36h-3.35v17.73h-17.13Zm0-32.8v-18.7c0-1.07.03-2.22.1-3.43l-15.78,22.13h15.68Z" style="fill: #fff;"/>
      <path d="m135.84,46.21v47.17h7.94v9.21c0,.81-.27,1.52-.82,2.12-.55.6-1.33.9-2.36.9h-4.76v17.73h-14.29v-17.73h-31.02c-1.02,0-1.95-.32-2.78-.95-.83-.64-1.35-1.43-1.56-2.38l-1.69-8.1,35.68-47.96h15.67m-13.76,18.58l-20.38,28.59h19.85v-20.12c0-1.23.04-2.57.13-4,.09-1.43.22-2.92.4-4.47m16.6-21.42h-19.93l-.85,1.14-35.68,47.96-.76,1.02.26,1.25,1.69,8.1c.36,1.63,1.26,3.02,2.61,4.05,1.33,1.02,2.85,1.54,4.5,1.54h28.19v17.73h19.96v-17.73h1.93c2.3,0,3.69-.99,4.45-1.82,1.02-1.12,1.56-2.51,1.56-4.03v-12.05h-7.94v-47.17h0Zm-31.48,47.17l11.52-16.15v16.15h-11.52Z" style="fill: #a1a635;"/>
    </g>
  </g>
</svg>